<svg xmlns="http://www.w3.org/2000/svg" width="326.37" height="21.483" viewBox="0 0 326.37 21.483">
  <g id="Group_19" data-name="Group 19" transform="translate(-66.719 -355.327)">
    <path id="Path_34" data-name="Path 34" d="M67.994,366.068a9.623,9.623,0,0,0,17.052,6.025h.1l.892.637v.127a10.786,10.786,0,0,1-8.478,3.953,10.742,10.742,0,1,1,0-21.483,10.786,10.786,0,0,1,8.478,3.953v.127l-.892.637h-.1a9.623,9.623,0,0,0-17.052,6.024Z" fill="#ffba59"/>
    <path id="Path_35" data-name="Path 35" d="M108.823,355.71v20.717H107.58v-9.912H93.587v9.912H92.344V355.71h1.243V365.4H107.58V355.71Z" fill="#ffba59"/>
    <path id="Path_36" data-name="Path 36" d="M118.415,356.857V365.4h9.148v1.116h-9.148v8.765h11.634v1.147H117.172V355.71h12.877v1.147Z" fill="#ffba59"/>
    <path id="Path_37" data-name="Path 37" d="M137.794,356.857V365.4h9.147v1.116h-9.147v8.765h11.633v1.147H136.551V355.71h12.876v1.147Z" fill="#ffba59"/>
    <path id="Path_38" data-name="Path 38" d="M173.044,355.8l-8.669,20.622h-.924l-7.714-18.359c-.478-1.147-.924-1.561-1.593-1.561a1.337,1.337,0,0,0-.829.286l-.128-.032-.35-.86.031-.128a2.478,2.478,0,0,1,1.435-.446c1.338,0,2.039.924,2.645,2.3l6.98,16.829,7.81-18.741h1.243Z" fill="#ffba59"/>
    <path id="Path_39" data-name="Path 39" d="M180.5,356.857V365.4h9.148v1.116H180.5v8.765h11.634v1.147H179.259V355.71h12.877v1.147Z" fill="#ffba59"/>
    <path id="Path_40" data-name="Path 40" d="M214,376.268l-.064.128a3.028,3.028,0,0,1-1.5.414c-2.55,0-3.411-2.486-4.462-4.94-.733-1.69-2.1-4.622-3.251-4.622H199.88v9.179h-1.243V355.71h7.076c4.239,0,6.693,2.1,6.693,5.737,0,3.378-2.1,5.482-5.8,5.769.988.605,2.135,3.155,2.71,4.526.892,2.1,1.657,3.888,3.25,3.888a1.58,1.58,0,0,0,.988-.286l.128.063Zm-8.033-10.136c3.188,0,5.164-1.817,5.164-4.685s-2.008-4.59-5.164-4.59H199.88v9.275Z" fill="#ffba59"/>
    <path id="Path_41" data-name="Path 41" d="M217.792,373.4v-.1l.8-.765h.1a7.673,7.673,0,0,0,6.247,3.06c3.251,0,5.387-1.817,5.387-4.272,0-2.932-3.028-3.888-6.375-5.322-2.55-1.116-5.1-2.455-5.1-5.451s2.486-5.227,6.184-5.227a7.559,7.559,0,0,1,5.96,2.8v.1l-.8.733h-.1a6.5,6.5,0,0,0-5.068-2.423c-2.869,0-4.877,1.657-4.877,3.92,0,2.168,1.88,3.252,4.43,4.367,3.443,1.53,7.045,2.646,7.045,6.439,0,3.283-2.71,5.546-6.566,5.546A8.955,8.955,0,0,1,217.792,373.4Z" fill="#ffba59"/>
    <path id="Path_42" data-name="Path 42" d="M264.963,355.71v20.717H263.72v-9.912H249.727v9.912h-1.243V355.71h1.243V365.4H263.72V355.71Z" fill="#ffba59"/>
    <path id="Path_43" data-name="Path 43" d="M271.687,366.068A10.934,10.934,0,1,1,282.62,376.81,10.594,10.594,0,0,1,271.687,366.068Zm20.558,0a9.642,9.642,0,1,0-9.625,9.531A9.361,9.361,0,0,0,292.245,366.068Z" fill="#ffba59"/>
    <path id="Path_44" data-name="Path 44" d="M311.4,355.71h1.179l5.578,18.55,6.311-18.55h1.243l.064.1-7.14,20.622h-.892l-5.769-18.614L306.2,376.427h-.893l-6.375-18.359c-.382-1.051-.637-1.561-1.4-1.561a1.369,1.369,0,0,0-.829.286l-.127-.032-.351-.86.064-.128a2.4,2.4,0,0,1,1.434-.446c1.243,0,1.945.924,2.391,2.263l5.673,16.734Z" fill="#ffba59"/>
    <path id="Path_45" data-name="Path 45" d="M348.818,376.236l-.063.128a2.3,2.3,0,0,1-2.8-.064,4.252,4.252,0,0,1-1.179-1.785l-1.339-3.219H331.893l-2.167,5.131h-1.307l8.893-20.717h.893l7.681,18.3c.478,1.115.861,1.625,1.626,1.625a1.234,1.234,0,0,0,.829-.286l.127.032Zm-5.864-6.088L337.7,357.654,332.4,370.148Z" fill="#ffba59"/>
    <path id="Path_46" data-name="Path 46" d="M369.471,376.268l-.063.128a3.031,3.031,0,0,1-1.5.414c-2.55,0-3.411-2.486-4.463-4.94-.733-1.69-2.1-4.622-3.251-4.622h-4.845v9.179h-1.243V355.71h7.076c4.24,0,6.694,2.1,6.694,5.737,0,3.378-2.1,5.482-5.8,5.769.988.605,2.135,3.155,2.709,4.526.892,2.1,1.658,3.888,3.251,3.888a1.584,1.584,0,0,0,.988-.286l.128.063Zm-8.032-10.136c3.188,0,5.164-1.817,5.164-4.685s-2.008-4.59-5.164-4.59h-6.088v9.275Z" fill="#ffba59"/>
    <path id="Path_47" data-name="Path 47" d="M393.089,366.068c0,6.184-4.016,10.359-10.614,10.359h-7.2V355.71h7.2C389.073,355.71,393.089,359.885,393.089,366.068Zm-1.307,0c0-5.545-3.506-9.211-9.307-9.211h-5.961V375.28h5.961C388.276,375.28,391.782,371.614,391.782,366.068Z" fill="#ffba59"/>
  </g>
</svg>
