<svg xmlns="http://www.w3.org/2000/svg" width="79.46" height="79.46" viewBox="0 0 79.46 79.46">
  <g id="Group_174" data-name="Group 174" transform="translate(-49.577 -30.637)">
    <path id="Path_555" data-name="Path 555" d="M89.307,109.947a39.58,39.58,0,1,1,39.58-39.58A39.625,39.625,0,0,1,89.307,109.947Zm0-78.814a39.234,39.234,0,1,0,39.234,39.234A39.278,39.278,0,0,0,89.307,31.133Z" fill="#fff" stroke="#fff" stroke-width="0.3"/>
    <g id="Group_172" data-name="Group 172" transform="translate(59.08 37.18)">
      <g id="Group_169" data-name="Group 169" transform="translate(0 0)">
        <path id="Path_556" data-name="Path 556" d="M79.4,104.7a3.763,3.763,0,0,0,4.945-5.055l.016-.034.373-.212.045.021a4.218,4.218,0,0,1,.005,3.658,4.2,4.2,0,1,1-7.619-3.539,4.218,4.218,0,0,1,2.8-2.356l.045.021.079.422-.016.034a3.763,3.763,0,0,0-.673,7.04Z" transform="translate(-76.745 -80.59)" fill="#fff" stroke="#fff" stroke-width="0.3"/>
        <path id="Path_557" data-name="Path 557" d="M96.646,69.883l5.586,5.867-.352.335-2.673-2.808-3.963,3.773,2.673,2.807-.352.335-5.586-5.867.352-.335,2.613,2.744,3.962-3.773-2.612-2.744Z" transform="translate(-86.706 -62.742)" fill="#fff" stroke="#fff" stroke-width="0.3"/>
        <path id="Path_558" data-name="Path 558" d="M121.005,56.869l1.358,3.052,3.268-1.454.177.4L122.54,60.32l1.393,3.131L128.09,61.6l.182.41-4.6,2.046-3.293-7.4,4.6-2.047.182.41Z" transform="translate(-105.275 -52.756)" fill="#fff" stroke="#fff" stroke-width="0.3"/>
        <path id="Path_559" data-name="Path 559" d="M148.635,50.34l.376,3.318,3.554-.4.049.433-3.553.4.386,3.4,4.519-.513.05.446-5,.568-.913-8.048,5-.567.05.446Z" transform="translate(-123.401 -49.338)" fill="#fff" stroke="#fff" stroke-width="0.3"/>
        <path id="Path_560" data-name="Path 560" d="M182.133,51.039l-5.046,7.144-.353-.078-1.4-7.659c-.086-.478-.222-.674-.477-.73a.522.522,0,0,0-.341.04l-.046-.023-.061-.358.023-.046a.968.968,0,0,1,.585-.05c.511.113.7.525.817,1.1l1.249,7.013,4.559-6.5.475.1Z" transform="translate(-140.602 -49.255)" fill="#fff" stroke="#fff" stroke-width="0.3"/>
        <path id="Path_561" data-name="Path 561" d="M202.6,61.313l-1.749,2.845L203.9,66.03l-.228.371-3.047-1.872-1.794,2.92,3.875,2.381-.235.382-4.289-2.636,4.24-6.9,4.289,2.635-.235.382Z" transform="translate(-156.147 -56.723)" fill="#fff" stroke="#fff" stroke-width="0.3"/>
        <path id="Path_562" data-name="Path 562" d="M220.258,88l-.054.014a1.184,1.184,0,0,1-.5-.342c-.646-.76-.123-1.646.342-2.581.318-.646.845-1.8.554-2.139l-1.227-1.443-2.735,2.324-.315-.37,6.173-5.246,1.792,2.108c1.074,1.263,1.068,2.527-.015,3.447a2.168,2.168,0,0,1-3.188-.268,4.884,4.884,0,0,1-.663,1.953c-.4.8-.739,1.478-.335,1.953a.618.618,0,0,0,.336.222l.013.054Zm.987-4.96a1.8,1.8,0,0,0,2.7.352,1.775,1.775,0,0,0,.06-2.7l-1.541-1.814L219.7,81.23Z" transform="translate(-168.005 -68.193)" fill="#fff" stroke="#fff" stroke-width="0.3"/>
        <path id="Path_563" data-name="Path 563" d="M232.074,106.263l.035-.015.4.173.014.034a3,3,0,0,0-.167,2.715c.488,1.174,1.465,1.672,2.351,1.3,1.059-.44.95-1.677.965-3.1.02-1.088.12-2.21,1.2-2.66a2.162,2.162,0,0,1,2.816,1.448,2.956,2.956,0,0,1-.118,2.573l-.035.015-.384-.178-.015-.034a2.541,2.541,0,0,0,.114-2.194,1.685,1.685,0,0,0-2.148-1.172c-.783.326-.892,1.167-.911,2.256-.036,1.473.1,2.941-1.267,3.51a2.287,2.287,0,0,1-2.989-1.538A3.5,3.5,0,0,1,232.074,106.263Z" transform="translate(-178.017 -85.417)" fill="#fff" stroke="#fff" stroke-width="0.3"/>
      </g>
      <g id="Group_171" data-name="Group 171" transform="translate(1.222 45.021)">
        <g id="Group_170" data-name="Group 170">
          <path id="Path_564" data-name="Path 564" d="M90.617,184.511,84.083,189.3l-.287-.392,3.126-2.292L83.687,182.2,80.561,184.5l-.287-.392,6.533-4.789.288.392-3.056,2.24,3.235,4.413,3.056-2.24Z" transform="translate(-80.274 -179.314)" fill="#fff" stroke="#fff" stroke-width="0.3"/>
          <path id="Path_565" data-name="Path 565" d="M107.419,205.62a4.275,4.275,0,1,1,1.415,5.823A4.143,4.143,0,0,1,107.419,205.62Zm6.828,4.241a3.77,3.77,0,1,0-5.163,1.179A3.661,3.661,0,0,0,114.247,209.861Z" transform="translate(-97.593 -195.206)" fill="#fff" stroke="#fff" stroke-width="0.3"/>
          <path id="Path_566" data-name="Path 566" d="M143.4,214.787l.458.059,1.238,7.472,3.373-6.879.482.062.019.04-3.8,7.64-.346-.044-1.309-7.506-3.165,6.93-.346-.044-1.556-7.437c-.1-.427-.17-.638-.466-.676a.532.532,0,0,0-.335.07l-.048-.019-.093-.351.031-.046a.936.936,0,0,1,.578-.1c.482.062.708.455.814,1l1.366,6.772Z" transform="translate(-117.694 -201.959)" fill="#fff" stroke="#fff" stroke-width="0.3"/>
          <path id="Path_567" data-name="Path 567" d="M186.751,221.03l-.011.054a.9.9,0,0,1-1.064.266,1.659,1.659,0,0,1-.629-.551l-.837-1.075-4.35,1.191-.287,2.158-.493.135,1.214-8.729.337-.092,4.785,6.1c.3.371.492.524.781.445a.477.477,0,0,0,.282-.194h.052Zm-2.84-1.69-3.273-4.167-.7,5.257Z" transform="translate(-144.877 -202.246)" fill="#fff" stroke="#fff" stroke-width="0.3"/>
          <path id="Path_568" data-name="Path 568" d="M209.363,207.18l.008.055a1.19,1.19,0,0,1-.39.466c-.821.566-1.65-.043-2.534-.6-.611-.38-1.7-1.02-2.072-.765l-1.559,1.076,2.039,2.954-.4.276-4.6-6.667,2.277-1.571c1.364-.942,2.621-.809,3.428.36a2.168,2.168,0,0,1-.586,3.145,4.881,4.881,0,0,1,1.877.855c.755.479,1.4.883,1.91.529a.618.618,0,0,0,.254-.312l.056-.008Zm-4.836-1.478a1.8,1.8,0,0,0,.621-2.654,1.776,1.776,0,0,0-2.681-.331l-1.959,1.352,2.06,2.985Z" transform="translate(-158.46 -194.005)" fill="#fff" stroke="#fff" stroke-width="0.3"/>
          <path id="Path_569" data-name="Path 569" d="M225.769,182.771a3.835,3.835,0,0,1,.852,5.736l-1.65,2.282-6.565-4.745,1.65-2.282A3.834,3.834,0,0,1,225.769,182.771Zm-.3.414a3.373,3.373,0,0,0-5.05.839l-1.365,1.889,5.838,4.219,1.365-1.889A3.373,3.373,0,0,0,225.47,183.185Z" transform="translate(-170.59 -181.009)" fill="#fff" stroke="#fff" stroke-width="0.3"/>
        </g>
      </g>
    </g>
    <g id="Group_173" data-name="Group 173" transform="translate(59.518 72.076)">
      <circle id="Ellipse_10" data-name="Ellipse 10" cx="1.038" cy="1.038" r="1.038" transform="translate(0)" fill="#fff" stroke="#fff" stroke-width="0.3"/>
      <circle id="Ellipse_11" data-name="Ellipse 11" cx="1.038" cy="1.038" r="1.038" transform="translate(57.5)" fill="#fff" stroke="#fff" stroke-width="0.3"/>
    </g>
  </g>
</svg>
